
<svg xmlns="http://www.w3.org/2000/svg" viewBox="0 0 800 500">
  <path fill="#e0e7ff" stroke="#c7d2fe" stroke-width="0.5" d="M138.7,209.6l-0.3,0.8l-0.3,0.2l-2.3-0.5l-5.5-0.3l-2.7,0.7l-2.3,1.9l-0.5,1.8l-10.3-0.2h-4.8l0.5-2.9
  l0.8-1.1l0.4-0.2l0.4-2.5l-1.6-3.2l-9.5-3.7l-4.6-0.1l-4.9-2.1l-0.4-3.9l-3.2-3.5l-6.3-4.2l-3-1.3l-3.7,0.5l-5.3,2.5l-2.2,0.4
  l-2.5-1l-2.9-1.9l-2.6-0.2l-1.4,2l-5.5,1.3L52,184l-2-1.2l-1.4-2.2l-2.5-0.1l-2.9-1.1l-2.2,1.1l-1.5,0.2l0.3,7l-1.9,0.2l-0.4,1.5
  l-1.8,2.1l-2.6,0.3l-1.7,1.1l-0.5,2.5l-1.6,0.7l-1.6,0.2l-1.9-1.1l-2.3,0.2l-2.1-0.1l-1.8,1.1H19l-1.1-0.9l-2.7-0.1l-2.1,2.1
  l-1.8-0.4V194l-1.6-1.3l-1.2,1.4l-0.2,2.1l-3,2.2l-0.5,0.9l-0.2,2.6l-1.1,0.7l-0.9,0l-0.3,3.3l2.9,6.8l-0.3,1.8l-2.4-0.4l-1.9,0.8
  l-0.6,1.7l1.3,1.2v1.7l2.1,1l2.4,2.8l2.5,3.4l1.8,3.2l2.5,2.5l2,2.2l1.7,2l2.5,0.6l1,1.2l2.1-0.1l2.4-0.2l2.7-0.7l0.3-0.4l1.6,0.6
  l1.8-1l3.5-1.1l3.8-0.2l3.3-1.5l0.5,0.1l0.5,0.6l-1.8,1.3l-0.3,1.3h3.7l1.9-0.7l3-2h2.7l-0.4,3.9l1.4,0.9l1.6-0.2l1.4-0.1l0.5-2.5
  l-1.9-2.5l0.2-2.2l-0.1-2l2.5-0.1l5.1,3.2l2-1.1l1.2-1.3l-0.9-1.2l0.2-2.5l-2.5-2.8L63,225l-1.7-1.8l-2-2.7l-2.5-2.7l-3-2.2
  l-0.4-1.7l-0.6-2l3.5-2.3l5.2-2l3,0.2l2.5,0.5l1.3-0.5l0.8-3.5l2.9-2.1l0.6-2.3l-1-3.7l-1-1.9l-0.9-1.2l-1.7-1.1l-0.5-2.5l1.9-3.5
  l1.2-5l1.4-1.3l3.7,0.5l3.4,1.8l5.5,1.3l2.5,1.2l1.8-1l2.2-2l2.7,0.5l3.1,0l4.2-2l2.4-1.2l2.1-0.9l0.2,2.7l2.5,0.8l3.5,1.4l2.1,1
  l2.3,0.1l1.7,1.4l0.1,5.1l-2.7,3.5l-0.3,2l-0.7,2.6l2.5,6.5l1.7,4.1l-0.1,5.6"/>
  <path fill="#e0e7ff" stroke="#c7d2fe" stroke-width="0.5" d="M321.1,102.6l0.4-1.9l-2.3-0.8l-0.5-2.4l-3.8-0.2l-0.3,1.8l-1.7,0.7l-0.3,3.6l2.4,2.2
  h2.1l2.4,1.1L321.1,102.6z"/>
  <path fill="#e0e7ff" stroke="#c7d2fe" stroke-width="0.5" d="M250.2,98.3l-1.1,0.3l0.7,2.4l1.1-0.4L250.2,98.3z"/>
  <path fill="#e0e7ff" stroke="#c7d2fe" stroke-width="0.5" d="M362.9,322.1l-1.5-0.3l-2,1.7l0.9,1.1l2.2,0.3l0.9-1.1L362.9,322.1z"/>
  <path fill="#e0e7ff" stroke="#c7d2fe" stroke-width="0.5" d="M236.3,239.9l-1.7,0.3l1,2.1l1.8-0.9L236.3,239.9z"/>
  <path fill="#e0e7ff" stroke="#c7d2fe" stroke-width="0.5" d="M214.1,295l-2.1-0.2l-1,2l0.7,2l1.5-0.2L214.1,295z"/>
  <path fill="#e0e7ff" stroke="#c7d2fe" stroke-width="0.5" d="M135.3,299.5l-2.8-0.1l-3.2-0.3l-1.8,0.6l0.2,1.9l-1.9,0.8
  l0.1,2.5l3.7,0.2h2.8l-1.1-1.5l-1.6-0.1l-0.8-1.1h2.1l0.7-2.6L135.3,299.5z"/>
  <path fill="#e0e7ff" stroke="#c7d2fe" stroke-width="0.5" d="M214.8,239.2l-1.7-1.1v-3.9l-2.4-1.1l-2.2,0.6l-0.5,1.9
  l1.1,2.2l0.7,1.9l1.3,1.5l1.4,1.8l1.1-1.2l-0.5-1.1l0.2-1.2L214.8,239.2z"/>
  <path fill="#e0e7ff" stroke="#c7d2fe" stroke-width="0.5" d="M226.5,177.3l-2.2-0.5l-2.8,0.2l-4.8,1.4l-1.4,5.9
  l0.9,1.8l1.9,0.3l1.6,0.5l2.5-1.1l2.8-1.5l0.8-2.4l-0.9-1.5l1.2-1.7L226.5,177.3z"/>
  <path fill="#e0e7ff" stroke="#c7d2fe" stroke-width="0.5" d="M423.8,270.1l-2.7,1.6l-1.1,2.7l0.1,1.9l2.6,0.2
  l1.1-1.3l1.2-1.2l-0.1-3.9H423.8z"/>
  <path fill="#e0e7ff" stroke="#c7d2fe" stroke-width="0.5" d="M739.9,176.3l-0.6-2.9l-3.2-1.1l-3-0.1l-0.7,1l-3.5-0.9
  l-2.4,0.3l-2.9,1.7l-2.4,2.3l-2.6,1.7l-1.8,2.7l-1.9,0.7l-1.1,1.6l-2.8,0.5l-2.2-0.8l-1.5,0.3l-0.6-1.5l-1-1.3l-2.5-0.1l-1.3,0.4
  l-0.8-2l-1.6-0.9l-1.3-2.6l-0.3-2.5l-1.1-1.8l-1.7-1.2l-2.9-1.1l0.4-0.7l-1.2-1.5v-1.7l-2-1.5h-3l-1.7,0.6l-1.9-2.3l-0.1-1.8
  l-1.3-1.2l-1.7-0.8l3.3-1.9h2.5l0.6-1.4l-0.4-2l-2.3-0.2l-0.8-1h-3.9l-0.8,1.1l-3,1.1l-1.8,1.7l-2.6-0.2l-1.5,0.8h-4.3l-2.6,0.5
  h-3.8l-2.5,1.8l-0.1,2.8l-2.4,1.3l0.2,1.5l-1.3,0.2l-0.7,1.6l-2.2,0.6l-1.1,1.2l-2.4-1l-2.8,0.5l-2.2,0.1l-2.1,1l-0.2,0.7l1.3,2
  l-1.1,2.3l-2.5-0.4l-1,0.4l-0.6,1.9l1,1.2l-0.5,2.9l-1.9,1.3l0.9,1.1l-0.9,1.4l0.9,2.1l-2.4,2.6l1.8,1.2l0.8,1.7l-0.1,1.9l-1.5,1.7
  l-0.2,2l1.8,0.8l1,2.9l2.6,1.4l1.1,2.6l2.5,1.7l3.6,3l2,0.3l1.8,1.8l0.5,2.5l0.8,1.5l2,1.8l1.1,4.9l1,2l2,2l1.6,1l2.1,0.6l2.4-0.4
  h2.9l1.9-1l2.9-0.3l2.3,0.8l2.4-0.2l3.1,0.8l1.9,0.1l2.9,1.2h2.6l3.2-1.8l3.2,0.2l0.4,1.9l1.5,1.4l2.6,0.5h2.9l3.2-0.7l1.8,0.5
  l3.1-1.3l4-0.3l3.5-0.8l1.4,0.7l3.1-1.2h2.9l3.9-0.5l4.2,0.8l2.6,1.8l2.1,0.7l2.5-0.5l1.5,1.4l2.3,0.5l1.6-0.8l2.4,0.1l1.6,0.7
  l1.7-1.1l3.5-1.1l1-1.3l3.6-1.8l2.1-0.4l2.3-1.2l1.3-1.5l0.1-1.9l1.5-1.2l2.2,0.4l1.9-1.2l-0.1-1.5l1.6-0.4l1.8-1.9l0.2-1.7
  l-1.2-1.8l-2.2-0.9l0.2-0.4l1.9-0.9l0.6-1.8l1.6-0.8l-0.9-2.4l0.5-1.8l-1.1-1.7l-2.2-0.4l-1.6-1.9l0.4-2.1l-2.5-2l-3.2-1.3l-0.7-2.5
  v-2.2l-1.6-1.9l0.2-0.5l-0.9-1.2l-0.7-2.2l-2.5-1.3L739.9,176.3z"/>
  <path fill="#e0e7ff" stroke="#c7d2fe" stroke-width="0.5" d="M327.7,152.4l-2.1,0.2l-1.9-0.2v-0.6l1.5-0.3l2.5,0.1
  V152.4z"/>
  <path fill="#e0e7ff" stroke="#c7d2fe" stroke-width="0.5" d="M321.1,154.8h-2.9l-0.2-2.4l2.2-0.2l1.2,1.1L321.1,154.8z"/>
  <path fill="#e0e7ff" stroke="#c7d2fe" stroke-width="0.5" d="M411.8,65.5l-1.8,0.1l-1.9-0.2v-1.5l1.4-0.2l1.1,0.2
  L411.8,65.5z"/>
  <path fill="#e0e7ff" stroke="#c7d2fe" stroke-width="0.5" d="M164.7,113.6l-1-0.3l-1.4,0.1l-1.2-0.1l-1.1-0.4l-0.8,0.4
  l-0.2,0.4l-0.9,0.3l-0.7,0.7l-1,0.4l-0.9-0.8h-0.7V113h2.1v-0.7l-0.5-0.8l-0.8-0.1l0.5-0.8l0.1-1.1l-0.9-0.1V109h-0.3v-0.4l-1-0.1
  l-0.5-0.7l1.1-0.2l1.2-0.3l0.7,0.7l0.9-0.7l1.2-0.3h1.7l0.8,0.4l1.1-0.6l0.6,0.3l-0.7,0.7l-0.6,0.3h-0.7l-0.2,0.3v0.2l0.7,0.6
  l0.8,0.1l0.9-0.1l0.3,0.1v0.5l0.5,0.3l0.6,0.9l-0.3,1.1l-0.3,1.2l-0.7,1.2L164.7,113.6z"/>
  <path fill="#e0e7ff" stroke="#c7d2fe" stroke-width="0.5" d="M460.2,97.1v1.3l-4.7-0.8l-5.4,0.4l-0.9,1.3l-4.5,1.2
  l0.6,2l-3.5,1.4l-4.5-0.3l-6.7,0.7l-0.2,1.3l-3.8,0.5l-3.7,0.7l-3.1-0.9l-4.8-0.3l-0.4,0.9l-3.3,0.6l-0.4,1l-2.8,1.3l-2.7,0.1
  l-2.3,1l-3.6,0.7h-2.3l-5.2-1.2l-3.2,0.3l-1.3-0.9l-4.1-0.8l-3.8-0.5l-2.9-1l-3.5-0.3l-2.5-0.3l0.7-1.6l0.1-1.4l-1.6-1.5l0.2-1.3
  l-2.8-1.6l-2.3-0.8l-0.2-1.3l-1.6-0.7l0.1-0.4l4.2-0.5l2.9-0.4l4.2,0.7l2.9-1.3l3.7-0.3l0.1-1.4l4.1-0.7l2.7-0.4l2.6,0.6l2.1,2.4
  l2.4-0.2l3.2-1l2.6,0.8l0.1,1h3.1l1.4-1.3l-0.5-1l3.4-0.7l1.5,0.8l4.4-1l0.5-0.9l4.1-0.3l2.3,1.3l1.7-0.8l2.5-2l1.9-0.1l2.5-1.6
  l3.7-0.4l4.1-1.1l3.9,0.8l3,1.4l2.5-0.3l2.4,1.1l0.4,2.1l1.4,1.2l-0.1,1.1l2.5,1.9L460.2,97.1z"/>
  <path fill="#e0e7ff" stroke="#c7d2fe" stroke-width="0.5" d="M282.3,134l1.2,1.1l-0.1,1.1l-1.2,0.7l-1.3-0.4l-1.9,0.2
  l-0.7-1.3l0.8-1.2l1.4-0.9L282.3,134z"/>
  <path fill="#e0e7ff" stroke="#c7d2fe" stroke-width="0.5" d="M387.1,139.8l-0.8,1.2l-1,0.4l-1.7-0.9v-1.3l0.7-0.3
  l1-0.1h0.5l1.1,0.2L387.1,139.8z"/>
  <path fill="#e0e7ff" stroke="#c7d2fe" stroke-width="0.5" d="M264.9,157.6l1.1,0.8v0.7l-0.9,1l-2.9,0.4l-0.2,1.3
  l-1.7,0.4l-1.4-0.9l-0.9-0.9l-0.4-1.7l0.3-0.9h0.5h0.9l1.2,0.5l0.5-0.1l0.2-0.8l1.1-0.5L264.9,157.6z"/>
  <path fill="#e0e7ff" stroke="#c7d2fe" stroke-width="0.5" d="M261.8,147.4l0.6,0.7l1.6,0.7l1.9,0.3l1.5,0.7l2.2,2
  l-0.5,0.7l-1.7,0.5h-0.9l-0.5,0.2l-0.5,0.9l-0.7,0.5l-0.9-0.3l-0.4,0.3v1.9l-0.5,0.7l-2.7-2.7l0.3-0.5l0.7-1l-1.4-2.1l-1.9-1.5
  l0.5-0.9l1.3-1.4L261.8,147.4z"/>
  <path fill="#e0e7ff" stroke="#c7d2fe" stroke-width="0.5" d="M283.4,125.2l-2,0.2l-1-0.4l-0.3-1.2l0.7-1.3l-0.8-0.9
  v-1.1l3.4-0.8l1.9,0.9l0.1,0.5l-0.4,1.1l-0.1,1.7L283.4,125.2z"/>
  <path fill="#e0e7ff" stroke="#c7d2fe" stroke-width="0.5" d="M331.8,98.7l0.3,2.7l-0.3,1l-1.6,0.3l-3.2,1l-1.8,1.7
  l-2-0.1l-1.4-0.6v-1.3l0.8-2l-1.5-0.5l0.6-1.6l1.7-0.1l0.9-0.9h3l1.5,0.6L331.8,98.7z"/>
  <path fill="#e0e7ff" stroke="#c7d2fe" stroke-width="0.5" d="M281.2,165.7h-2.8h-0.7l-0.7-0.9l2-1.5l0.9-1.4l1.5-0.8
  l0.3-0.9l1.9-0.1l1.2-0.3l1.2,0.3l0.8-0.3h1.3l0.3-1.1l0.9-0.3l0.7,0.7l1.7,0.2L291,160l-1.1,2.2L289,164l-1.2,1l-2.9,1.5
  L281.2,165.7z"/>
  <path fill="#e0e7ff" stroke="#c7d2fe" stroke-width="0.5" d="M498.2,243.5l-1.3,0.2l-0.9-0.9l-1-0.1l-1.3-1.5l1-1.7
  l1.3-0.5h1.3l1,0.8l1.3,1.5l-0.2,1.4L498.2,243.5z"/>
  <path fill="#e0e7ff" stroke="#c7d2fe" stroke-width="0.5" d="M97.8,96.2l0.6-1.5l-1-1.2l-0.7-0.2l-0.2-2.2l-1.1-0.8
  l-1.2,0.2h-1.8l-1.1-1.5l-2.1-0.2l-2.3-1l-0.8-1.1l-0.5-0.3l-1.3,1.3l-1.2,0.5l1.3,3.6l0.3,1.6l0.4,2.4l1.5-0.4l1.5,1.5l2,0.1
  L97.8,96.2z"/>
  <path fill="#e0e7ff" stroke="#c7d2fe" stroke-width="0.5" d="M379.5,175.9l3.5-4.9l2.5-2.7l0.3-1.3l1.9,0.2l2.6-2.5
  l-0.5-1.7l-1.4-1.1l-2.7,0.1l-3.7,0.9l-2.8,1l-3.8,0.2l-4,1.6l-2.2-1.1h-2.7l-0.9,0.8l-3.7-0.6l-3.7,1.7l-2.3,1.7l0.3,2.1l-1.7,0.9
  l-0.3,2.3l-1.3,1.4l0.9,2.9l1.8,1.4l0.2,1.4l1.3,0.5l1.3,1.7l2.8-0.5l1.4-1.6l3.7-0.3l2.3,0.1l1-1.3l2.1-0.7l2.5-1.7L379.5,175.9
  z"/>
  <path fill="#e0e7ff" stroke="#c7d2fe" stroke-width="0.5" d="M499.8,318l-0.4-1.3l-0.8-1.4l-2-0.6l-0.2-1.8l0.8-0.7
  l-0.4-2.1l-0.6-1.2l-1.8-0.7l-0.5-1.4l0.2-0.9l-1.5-0.9l-0.6-1.3l0.1-0.9l-1.4-0.7l-0.9,0.3l-1.4-1.7l-0.6-0.5l-1.1,0.5l-2.1-1.2
  l-1.7,0.9l-0.7,1.2l0.3,1.3l-0.1,1.2l-0.8,1.5l0.4,1.3l1.5-0.3h1l1.8,1.1l0.4,1.1l-0.1,1.3l0.4,1.5l1.4,0.7l1.2,1.3l1.8,1.3
  l1.5,0.7l1.3,1l0.8,1.1l1.7,1.4L499.8,318z"/>
</svg>
